<?xml version="1.0" encoding="UTF-8"?>
<svg version="1.1" xmlns="http://www.w3.org/2000/svg" width="1080" height="1079">
<path d="M0 0 C1.10782333 -0.00423477 2.21564667 -0.00846954 3.35704041 -0.01283264 C6.92296203 -0.02265697 10.48875481 -0.02276151 14.0546875 -0.01953125 C15.88965286 -0.01862488 15.88965286 -0.01862488 17.76168823 -0.0177002 C110.43520162 0.10644484 201.31225638 20.79640053 282.40820312 66.74169922 C284.78758384 68.08758827 287.17748567 69.41258892 289.5703125 70.734375 C309.62777658 81.94295787 328.82638242 95.03446349 346.9296875 109.16796875 C348.1233226 110.08642547 349.31733441 111.00439282 350.51171875 111.921875 C362.64875156 121.29633076 374.18099505 131.33257339 385.41455078 141.76611328 C386.98453354 143.21871415 388.56344523 144.66105967 390.14453125 146.1015625 C399.50796076 154.64950797 408.80658635 163.31928642 417.03125 172.98828125 C419.04942408 175.30544408 421.132747 177.54975332 423.23046875 179.79467773 C429.07140941 186.04959325 434.59018134 192.47566824 439.9296875 199.16796875 C440.85059935 200.29766083 441.77252861 201.42652407 442.6953125 202.5546875 C503.86802532 277.65611254 543.58847497 372.73322532 557.68359375 587.453125 C548.57260359 671.83550223 523.03687605 755.72916304 471.9296875 833.16796875 C470.92696269 834.67570103 469.92436271 836.18351632 468.921875 837.69140625 C458.29836377 853.55162734 446.86967921 868.86054956 434.38671875 883.30859375 C431.92374475 886.17488463 429.54764582 889.09794495 427.1796875 892.04296875 C424.19427992 895.71363893 421.1129906 899.11880344 417.70239258 902.39428711 C415.97381036 904.12382159 414.39229072 905.91508514 412.80859375 907.77734375 C408.57993608 912.6417513 404.05903699 917.18538344 399.4921875 921.73046875 C398.68458984 922.54193359 397.87699219 923.35339844 397.04492188 924.18945312 C392.72203123 928.50537698 388.32412851 932.66384817 383.69213867 936.64624023 C381.34004068 938.67707924 379.07724134 940.7988671 376.8046875 942.91796875 C371.5968407 947.66672162 366.15269147 952.02030067 360.578125 956.328125 C358.15904982 958.19893674 355.77116276 960.10025423 353.40625 962.0390625 C329.76610055 981.39364648 303.72330552 997.57668124 276.9296875 1012.16796875 C275.96256836 1012.69745117 274.99544922 1013.22693359 273.99902344 1013.77246094 C237.68315712 1033.53415465 198.96431082 1048.84605955 158.9296875 1059.16796875 C157.75970215 1059.47041504 156.5897168 1059.77286133 155.38427734 1060.08447266 C130.36654354 1066.44836506 104.91785818 1070.82248697 79.3046875 1073.98046875 C78.40194092 1074.09229492 77.49919434 1074.20412109 76.5690918 1074.31933594 C59.21540056 1076.29972254 41.80984561 1076.35435689 24.36523438 1076.35327148 C20.46473116 1076.35544918 16.56451568 1076.37364627 12.6640625 1076.39257812 C-10.57161216 1076.44658681 -33.45575688 1074.90092499 -56.4453125 1071.54296875 C-57.3270816 1071.41580475 -58.20885071 1071.28864075 -59.11734009 1071.15762329 C-130.26356296 1060.7980784 -198.79442053 1035.73982122 -260.0703125 998.16796875 C-261.01874023 997.58660156 -261.96716797 997.00523437 -262.94433594 996.40625 C-275.71700225 988.52607589 -288.06372366 980.17142954 -300.0703125 971.16796875 C-300.68229492 970.7090625 -301.29427734 970.25015625 -301.92480469 969.77734375 C-312.12377545 962.09280068 -322.06098284 954.12220707 -331.48828125 945.50390625 C-333.60444627 943.58943321 -335.74132857 941.70823085 -337.89453125 939.8359375 C-351.65524823 927.81921981 -365.48975867 915.17323889 -377.30859375 901.2109375 C-379.16083924 899.06298985 -381.0782413 896.98230282 -383.00830078 894.90429688 C-388.62143699 888.85439268 -393.94029899 882.63694805 -399.0703125 876.16796875 C-399.80991211 875.24516113 -399.80991211 875.24516113 -400.56445312 874.30371094 C-427.87070855 840.17914626 -451.35961724 802.39061717 -469.3828125 762.54296875 C-469.70324524 761.83653229 -470.02367798 761.13009583 -470.3538208 760.4022522 C-492.05937427 712.39605479 -506.45230326 661.51927331 -513.3203125 609.29296875 C-513.47145508 608.14368896 -513.62259766 606.99440918 -513.77832031 605.81030273 C-514.25618034 601.93375766 -514.68048808 598.05415272 -515.0703125 594.16796875 C-515.15751556 593.30375305 -515.24471863 592.43953735 -515.33456421 591.5491333 C-517.03750276 574.12271383 -517.4337647 556.79463977 -517.3828125 539.29296875 C-517.38058786 537.94106046 -517.37841146 536.58915209 -517.37628174 535.23724365 C-517.33089149 514.41295591 -516.80501604 493.82688335 -514.0703125 473.16796875 C-513.97085327 472.40601196 -513.87139404 471.64405518 -513.7689209 470.85900879 C-501.85260048 380.2444613 -468.72012303 295.14923879 -393.0703125 193.16796875 C-392.57321777 192.57177734 -392.07612305 191.97558594 -391.56396484 191.36132812 C-380.10075642 177.65835608 -367.80366447 164.81496509 -355.1953125 152.16796875 C-354.70308197 151.67305939 -354.21085144 151.17815002 -353.70370483 150.66824341 C-348.00657675 144.94758084 -342.22808687 139.39371043 -336.0703125 134.16796875 C-334.96401568 133.20668132 -333.85851759 132.24447374 -332.75390625 131.28125 C-268.07518982 75.33356835 -188.90327354 33.4010303 0 0 Z " fill="#48639F" transform="translate(519.0703125,0.83203125)"/>
<path d="M0 0 C1.10782333 -0.00423477 2.21564667 -0.00846954 3.35704041 -0.01283264 C6.92296203 -0.02265697 10.48875481 -0.02276151 14.0546875 -0.01953125 C15.88965286 -0.01862488 15.88965286 -0.01862488 17.76168823 -0.0177002 C110.43520162 0.10644484 201.31225638 20.79640053 282.40820312 66.74169922 C284.78758384 68.08758827 287.17748567 69.41258892 289.5703125 70.734375 C309.62777658 81.94295787 328.82638242 95.03446349 346.9296875 109.16796875 C348.1233226 110.08642547 349.31733441 111.00439282 350.51171875 111.921875 C362.64875156 121.29633076 374.18099505 131.33257339 385.41455078 141.76611328 C386.98453354 143.21871415 388.56344523 144.66105967 390.14453125 146.1015625 C399.50796076 154.64950797 408.80658635 163.31928642 417.03125 172.98828125 C419.04942408 175.30544408 421.132747 177.54975332 423.23046875 179.79467773 C429.07140941 186.04959325 434.59018134 192.47566824 439.9296875 199.16796875 C440.85059935 200.29766083 441.77252861 201.42652407 442.6953125 202.5546875 C503.86802532 277.65611254 543.58847497 372.73322532 557.68359375 587.453125 C548.57260359 671.83550223 523.03687605 755.72916304 471.9296875 833.16796875 C470.92696269 834.67570103 469.92436271 836.18351632 468.921875 837.69140625 C458.29836377 853.55162734 446.86967921 868.86054956 434.38671875 883.30859375 C431.92374475 886.17488463 429.54764582 889.09794495 427.1796875 892.04296875 C424.19427992 895.71363893 421.1129906 899.11880344 417.70239258 902.39428711 C415.97381036 904.12382159 414.39229072 905.91508514 412.80859375 907.77734375 C408.57993608 912.6417513 404.05903699 917.18538344 399.4921875 921.73046875 C398.68458984 922.54193359 397.87699219 923.35339844 397.04492188 924.18945312 C392.72203123 928.50537698 388.32412851 932.66384817 383.69213867 936.64624023 C381.34004068 938.67707924 379.07724134 940.7988671 376.8046875 942.91796875 C371.5968407 947.66672162 366.15269147 952.02030067 360.578125 956.328125 C358.15904982 958.19893674 355.77116276 960.10025423 353.40625 962.0390625 C329.76610055 981.39364648 303.72330552 997.57668124 276.9296875 1012.16796875 C275.96256836 1012.69745117 274.99544922 1013.22693359 273.99902344 1013.77246094 C237.68315712 1033.53415465 198.96431082 1048.84605955 158.9296875 1059.16796875 C157.75970215 1059.47041504 156.5897168 1059.77286133 155.38427734 1060.08447266 C130.36654354 1066.44836506 104.91785818 1070.82248697 79.3046875 1073.98046875 C78.40194092 1074.09229492 77.49919434 1074.20412109 76.5690918 1074.31933594 C59.21540056 1076.29972254 41.80984561 1076.35435689 24.36523438 1076.35327148 C20.46473116 1076.35544918 16.56451568 1076.37364627 12.6640625 1076.39257812 C-10.57161216 1076.44658681 -33.45575688 1074.90092499 -56.4453125 1071.54296875 C-57.3270816 1071.41580475 -58.20885071 1071.28864075 -59.11734009 1071.15762329 C-130.26356296 1060.7980784 -198.79442053 1035.73982122 -260.0703125 998.16796875 C-261.01874023 997.58660156 -261.96716797 997.00523437 -262.94433594 996.40625 C-275.71700225 988.52607589 -288.06372366 980.17142954 -300.0703125 971.16796875 C-300.68229492 970.7090625 -301.29427734 970.25015625 -301.92480469 969.77734375 C-312.12377545 962.09280068 -322.06098284 954.12220707 -331.48828125 945.50390625 C-333.60444627 943.58943321 -335.74132857 941.70823085 -337.89453125 939.8359375 C-351.65524823 927.81921981 -365.48975867 915.17323889 -377.30859375 901.2109375 C-379.16083924 899.06298985 -381.0782413 896.98230282 -383.00830078 894.90429688 C-388.62143699 888.85439268 -393.94029899 882.63694805 -399.0703125 876.16796875 C-399.80991211 875.24516113 -399.80991211 875.24516113 -400.56445312 874.30371094 C-427.87070855 840.17914626 -451.35961724 802.39061717 -469.3828125 762.54296875 C-469.70324524 761.83653229 -470.02367798 761.13009583 -470.3538208 760.4022522 C-492.05937427 712.39605479 -506.45230326 661.51927331 -513.3203125 609.29296875 C-513.47145508 608.14368896 -513.62259766 606.99440918 -513.77832031 605.81030273 C-514.25618034 601.93375766 -514.68048808 598.05415272 -515.0703125 594.16796875 C-515.15751556 593.30375305 -515.24471863 592.43953735 -515.33456421 591.5491333 C-517.03750276 574.12271383 -517.4337647 556.79463977 -517.3828125 539.29296875 C-517.38058786 537.94106046 -517.37841146 536.58915209 -517.37628174 535.23724365 C-517.33089149 514.41295591 -516.80501604 493.82688335 -514.0703125 473.16796875 C-513.97085327 472.40601196 -513.87139404 471.64405518 -513.7689209 470.85900879 C-501.85260048 380.2444613 -468.72012303 295.14923879 -393.0703125 193.16796875 C-392.57321777 192.57177734 -392.07612305 191.97558594 -391.56396484 191.36132812 C-380.10075642 177.65835608 -367.80366447 164.81496509 -355.1953125 152.16796875 C-354.70308197 151.67305939 -354.21085144 151.17815002 -353.70370483 150.66824341 C-348.00657675 144.94758084 -342.22808687 139.39371043 -336.0703125 134.16796875 C-334.96401568 133.20668132 -333.85851759 132.24447374 -332.75390625 131.28125 C-268.07518982 75.33356835 -188.90327354 33.4010303 0 0 Z M6.53491211 162.59838867 C5.36174753 162.75598223 4.18858295 162.91357578 2.97986794 163.0759449 C0.36291107 163.42765272 -2.25378449 163.78093217 -4.87020683 164.13656044 C-12.50691347 165.17372458 -20.1464662 166.18973119 -27.78564453 167.20849609 C-28.63531591 167.32194496 -29.48498729 167.43539383 -30.36040628 167.55228055 C-54.28844517 170.74605567 -78.23071198 173.83026731 -102.17238569 176.91983652 C-105.96266916 177.4089941 -109.75292442 177.89836971 -113.54317093 178.38781357 C-127.23385757 180.15568586 -140.9246827 181.92248257 -154.61562045 183.68840908 C-168.41018298 185.46770804 -182.20457985 187.24828952 -195.99895167 189.02906632 C-199.90003977 189.53265358 -203.80113551 190.03618152 -207.70223427 190.5396862 C-219.23366605 192.02801985 -230.76508314 193.51646607 -242.29638016 195.00584352 C-248.5398449 195.81221055 -254.78334119 196.61833303 -261.02685547 197.42431641 C-262.24490647 197.58156008 -263.46295747 197.73880375 -264.71791911 197.90081239 C-281.37070268 200.05016958 -298.02489104 202.18831184 -314.68023241 204.31775296 C-321.23681262 205.1564521 -327.79312896 205.99721175 -334.34943658 206.83803886 C-340.41090659 207.61512043 -346.47282306 208.3885863 -352.53512144 209.1591773 C-356.21033705 209.62719205 -359.88511022 210.09860941 -363.55976748 210.57098603 C-365.23764902 210.78595326 -366.91571441 210.99949141 -368.59398007 211.21143889 C-385.14329012 212.2864601 -385.14329012 212.2864601 -398.29296875 220.71484375 C-404.52204463 230.59690311 -399.35377704 247.61178155 -397.90292358 258.74421692 C-397.67887784 260.48627004 -397.45517956 262.22836787 -397.23179495 263.97050589 C-396.6207129 268.72832661 -396.00473423 273.48550208 -395.38791156 278.24258149 C-394.72066821 283.39536451 -394.05802951 288.54873996 -393.39480591 293.70204163 C-392.0903849 303.83183882 -390.7817587 313.96108856 -389.47177558 324.0901678 C-387.92354972 336.06286117 -386.37975236 348.03612441 -384.83612986 360.00941201 C-382.05326368 381.59400511 -379.2667354 403.17812384 -376.47802734 424.76196289 C-373.82674792 445.28218841 -371.17743639 465.80266637 -368.53076172 486.32348633 C-368.37057834 487.56542055 -368.21039497 488.80735478 -368.04535756 490.08692338 C-367.23873118 496.34086896 -366.43212982 502.59481777 -365.62554312 508.84876847 C-365.46624443 510.08390464 -365.30694574 511.3190408 -365.14281982 512.59160534 C-364.82094713 515.08727662 -364.49907605 517.58294811 -364.17720658 520.07861981 C-360.5059794 548.54369046 -356.8316881 577.00835843 -353.14715576 605.47171021 C-352.83082456 607.91564166 -352.51449833 610.35957375 -352.1981771 612.80350649 C-352.04202727 614.00993278 -351.88587745 615.21635907 -351.72499581 616.45934372 C-351.09730448 621.30898924 -350.46962632 626.15863647 -349.84195381 631.00828442 C-349.53049547 633.4146253 -349.21901372 635.82096315 -348.90750831 638.22729793 C-344.71723731 670.59679807 -340.55670101 702.96991697 -336.43056589 735.34765423 C-334.69029848 748.99921907 -332.93949505 762.64943451 -331.18729126 776.2994718 C-329.81578607 786.98810631 -328.45395764 797.67788347 -327.10510376 808.36940046 C-326.20532089 815.49506119 -325.29436547 822.61923418 -324.37422261 829.7422943 C-323.85082305 833.79705986 -323.33264702 837.85231349 -322.82856989 841.9095304 C-322.37101773 845.59188659 -321.89902523 849.27208581 -321.41528912 852.95109125 C-321.16285367 854.90043851 -320.92610411 856.85179734 -320.68994939 858.80318385 C-319.64062635 866.63381463 -318.15682514 870.61380268 -313.0078125 876.54296875 C-304.23672575 881.39505929 -289.74421213 877.20399391 -280.1328125 875.98046875 C-278.30879149 875.75305583 -276.4847349 875.52592819 -274.66064453 875.29907227 C-260.65255449 873.54494882 -246.66938267 871.62330159 -232.69009399 869.65480042 C-214.28925652 867.06450229 -195.85631344 864.74536375 -177.41015625 862.50390625 C-175.56373283 862.27902023 -175.56373283 862.27902023 -173.68000793 862.04959106 C-167.49921266 861.29682349 -161.31805431 860.54742045 -155.13598633 859.80517578 C-139.07083305 857.86200983 -123.06514246 855.62323742 -107.0703125 853.16796875 C-108.7203125 853.49796875 -110.3703125 853.82796875 -112.0703125 854.16796875 C-109.82231988 856.41596137 -108.45869947 856.84962846 -105.4597168 857.80029297 C-104.50079025 858.10756317 -103.54186371 858.41483337 -102.55387878 858.73141479 C-101.5112941 859.05852448 -100.46870941 859.38563416 -99.39453125 859.72265625 C-98.31839066 860.06547638 -97.24225006 860.40829651 -96.13349915 860.76150513 C-92.67674145 861.86110503 -89.21732194 862.95206097 -85.7578125 864.04296875 C-83.46792387 864.77028231 -81.17820819 865.49814064 -78.88867188 866.2265625 C-70.41377767 868.91925798 -61.93821403 871.60945035 -53.43359375 874.20703125 C-42.39241844 877.58131693 -31.41288783 881.15742156 -20.41748047 884.67724609 C-7.00352187 888.98630445 -7.00352187 888.98630445 6.44921875 893.171875 C12.26681444 894.94694577 18.05716049 896.80295284 23.84765625 898.6640625 C24.83819 898.98206818 25.82872375 899.30007385 26.84927368 899.62771606 C30.96860112 900.95042152 35.08784015 902.27336609 39.20532227 903.60180664 C50.11687111 907.12040152 61.01815558 910.59822443 72.0990448 913.55003357 C77.74653982 915.06208151 83.16147508 916.96363903 88.64453125 918.984375 C94.01024391 920.91756279 99.47110459 922.52033197 104.9296875 924.16796875 C107.47238103 924.9565256 110.01413715 925.74758178 112.5546875 926.54296875 C113.22056885 926.75123291 113.8864502 926.95949707 114.57250977 927.17407227 C122.04386999 929.51312496 129.50881915 931.87249877 136.97314453 934.23388672 C139.16644627 934.92683242 141.36020218 935.61834094 143.55419922 936.30908203 C160.96693694 941.79389157 178.35467058 947.35752819 195.74676514 952.90734863 C217.43112436 959.8322119 217.43112436 959.8322119 239.12890625 966.71484375 C239.84167725 966.94002686 240.55444824 967.16520996 241.28881836 967.3972168 C246.57319743 969.06305811 251.86739732 970.69506867 257.16796875 972.30859375 C259.13967471 972.92213733 261.0997423 973.57360727 263.05078125 974.25 C270.23828846 976.5418103 275.04588328 975.06046852 281.6328125 971.9453125 C286.82129783 967.93041314 288.81972179 961.317338 290.8671875 955.29296875 C291.12314697 954.5546582 291.37910645 953.81634766 291.64282227 953.05566406 C293.58976067 947.36043127 295.3116711 941.61292318 296.96459961 935.82666016 C298.62849772 930.05137443 300.50312798 924.36047501 302.4296875 918.66796875 C304.56042884 912.36739563 306.59922091 906.0623987 308.4296875 899.66796875 C310.26015909 893.27352134 312.29930351 886.96867183 314.4296875 880.66796875 C316.74401453 873.8181034 318.92391316 866.95643987 320.91482544 860.00616455 C322.66552524 853.94837404 324.58226805 847.94954261 326.51953125 841.94921875 C329.49314444 832.69666033 332.42358196 823.43169144 335.3125 814.15234375 C335.6901651 812.93942154 336.0678302 811.72649933 336.4569397 810.4768219 C337.04564389 808.58554888 337.63434604 806.69427522 338.22285461 804.80294132 C346.07121272 779.58117889 354.00485865 754.38725849 362.0281601 729.22059631 C362.73281832 727.00986279 363.43693616 724.79895781 364.14093018 722.5880127 C373.05209533 694.60824438 373.05209533 694.60824438 377.75117493 680.71650696 C379.60574119 675.22115026 381.28743837 669.69249727 382.89558411 664.12065125 C384.81666121 657.48640096 386.84915439 650.88864388 388.8984375 644.29296875 C389.4835762 642.40904419 389.4835762 642.40904419 390.08053589 640.48706055 C394.52875493 626.18835793 399.07079743 611.91951058 403.62353516 597.65380859 C404.82290146 593.89556876 406.0199559 590.1365969 407.21647263 586.37744904 C416.27689085 557.9190344 416.27689085 557.9190344 420.77493286 544.64990234 C422.45178554 539.68901441 423.98797579 534.70209721 425.4296875 529.66796875 C427.50175527 522.46125095 429.81895199 515.35547564 432.25585938 508.26367188 C434.05632625 502.97241746 435.68955951 497.64379117 437.25 492.27734375 C440.11216047 482.44099678 443.19811889 472.67940951 446.3046875 462.91796875 C446.59037598 462.01788086 446.87606445 461.11779297 447.17041016 460.19042969 C454.04647803 438.52716045 454.04647803 438.52716045 457.66162109 428.04589844 C459.29047399 423.27769929 460.72742162 418.4641537 462.12890625 413.625 C464.19106222 406.51693213 466.41866055 399.4704757 468.69921875 392.4296875 C469.70551152 389.29901601 470.71058036 386.16795328 471.71557617 383.03686523 C472.4034465 380.90520334 473.09686543 378.77532444 473.7956543 376.6472168 C474.82143845 373.51719865 475.82462231 370.38065225 476.82421875 367.2421875 C477.29285088 365.84017342 477.29285088 365.84017342 477.77095032 364.40983582 C480.19206297 356.69749697 481.86574094 348.18348699 478.2421875 340.66796875 C474.03077997 336.11509575 470.32075021 333.67307991 464.38525391 331.828125 C463.74310912 331.62515619 463.10096434 331.42218739 462.43936062 331.21306801 C460.3064448 330.54173535 458.16901288 329.88618656 456.03125 329.23046875 C454.50672241 328.75387535 452.98251361 328.2762612 451.45860291 327.79769897 C448.19847937 326.77614078 444.93633532 325.76142865 441.6723938 324.75213623 C436.51123761 323.15613233 431.35472853 321.54548623 426.19897461 319.93212891 C420.92237343 318.28164578 415.64550698 316.63204605 410.36698914 314.98770142 C399.38670887 311.56679926 388.41591481 308.11774829 377.45703125 304.62890625 C376.44047266 304.30530687 376.44047266 304.30530687 375.40337753 303.97517014 C372.07077187 302.91407319 368.73839165 301.85227033 365.40612793 300.7901001 C346.02007902 294.61158777 326.61629345 288.49402149 307.17840576 282.48046875 C288.54418174 276.71133257 269.96570155 270.76987319 251.38558578 264.82948685 C229.01058285 257.67628339 206.61124301 250.60779817 184.18153 243.62813187 C158.3993627 235.60460795 132.67213194 227.41336561 106.96096706 219.16530418 C103.9548839 218.20107996 100.94854426 217.23765677 97.9421978 216.27425385 C95.86998765 215.60968118 93.79826696 214.9435993 91.72657776 214.27740479 C90.48939499 213.88075623 89.25221222 213.48410767 87.97753906 213.07543945 C86.90038635 212.72939163 85.82323364 212.38334381 84.71343994 212.02680969 C77.88527595 209.92019033 71.18416785 208.54072857 64.5546875 211.85546875 C59.92166638 215.93693974 57.46417874 219.68594445 55.5703125 225.5625 C55.17714844 226.76455078 54.78398438 227.96660156 54.37890625 229.20507812 C53.98316406 230.45095703 53.58742188 231.69683594 53.1796875 232.98046875 C52.76530113 234.25878106 52.34994557 235.53677962 51.93359375 236.81445312 C50.92272449 239.92934098 49.92181938 243.04707246 48.9296875 246.16796875 C46.02147041 231.12470787 44.24996248 215.98480245 42.47924805 200.77270508 C42.10104304 197.5380633 41.71671012 194.30418973 41.33203125 191.0703125 C41.22052231 190.09311752 41.10901337 189.11592255 40.99412537 188.1091156 C39.58264515 175.55359816 39.58264515 175.55359816 32.9296875 165.16796875 C24.64982629 159.27117684 16.04003972 161.28784471 6.53491211 162.59838867 Z " fill="#4965A0" transform="translate(519.0703125,0.83203125)"/>
<path d="M0 0 C7.51692709 1.98292121 14.92822955 4.19326356 22.3203125 6.59765625 C23.39155869 6.94363358 24.46280487 7.2896109 25.56651306 7.64607239 C27.87710506 8.39236744 30.18737282 9.13966698 32.49734497 9.88787842 C38.78913618 11.92513766 45.08390326 13.95316068 51.37890625 15.98046875 C52.02798132 16.18956627 52.67705639 16.39866379 53.3458004 16.6140976 C67.23469531 21.08727258 81.1453953 25.49040461 95.0625 29.875 C99.76826831 31.35794873 104.47400074 32.84101127 109.1796875 34.32421875 C110.36492508 34.69776489 111.55016266 35.07131104 112.77131653 35.45617676 C127.06554263 39.96331725 141.3507213 44.49895444 155.63554001 49.03580475 C157.64976079 49.67551416 159.66400406 50.31515274 161.67825317 50.95477295 C165.47696551 52.161075 169.27560552 53.36760466 173.07421875 54.57421875 C174.2734346 54.95513672 175.47265045 55.33605469 176.70820618 55.72851562 C182.22507516 57.48131758 187.74142141 59.23572321 193.25634766 60.99462891 C201.69217605 63.68457415 210.12978317 66.36150721 218.59765625 68.94921875 C227.48883429 71.69517385 236.34838316 74.54382344 245.21630859 77.36376953 C254.4500607 80.29927829 263.68591068 83.22179162 272.95117188 86.05664062 C279.8346975 88.18652075 286.68327687 90.4273732 293.5390625 92.64453125 C300.35459111 94.84333261 307.1824388 96.99284514 314.03027344 99.08886719 C318.06917019 100.32802887 322.09783229 101.59833361 326.125 102.875 C327.76692015 103.39455316 329.40884744 103.91408377 331.05078125 104.43359375 C331.87271973 104.69382324 332.6946582 104.95405273 333.54150391 105.22216797 C336.68986954 106.21826458 339.83918552 107.21133449 342.98852539 108.2043457 C346.13769836 109.19782889 349.28614221 110.19361229 352.43457031 111.18945312 C354.23832705 111.75934962 356.04239145 112.32827285 357.84667969 112.89648438 C360.7942502 113.82483772 363.74092953 114.75597806 366.6875 115.6875 C367.59604736 115.97294678 368.50459473 116.25839355 369.44067383 116.55249023 C374.69387724 118.21654846 379.85783345 120.0185598 385 122 C381.9267645 133.18581368 378.42020978 144.21920127 374.87597656 155.26318359 C373.57166463 159.33824959 372.28530833 163.41890835 371 167.5 C368.84433299 174.33685292 366.67549537 181.16943156 364.5 188 C361.56377288 197.21999415 358.64407785 206.44509848 355.73388672 215.67333984 C354.23979594 220.41009472 352.74345171 225.14613829 351.24755859 229.88232422 C350.00937565 233.8028346 348.77168186 237.72349781 347.53515625 241.64453125 C344.57320969 251.03453204 341.59563918 260.41944062 338.60791016 269.80126953 C335.96990823 278.08776759 333.34934374 286.37970293 330.73388672 294.67333984 C329.49030751 298.61589136 328.24506007 302.55791594 327 306.5 C326.49999221 308.08333087 325.99999221 309.66666421 325.5 311.25 C318 335 318 335 310.5 358.75 C310.25258057 359.5335083 310.00516113 360.3170166 309.75024414 361.12426758 C309.24946149 362.71005215 308.74864761 364.29582687 308.24780273 365.8815918 C307.00952309 369.80234148 305.77175925 373.7232524 304.53515625 377.64453125 C301.57320969 387.03453204 298.59563918 396.41944062 295.60791016 405.80126953 C292.96990823 414.08776759 290.34934374 422.37970293 287.73388672 430.67333984 C286.49030751 434.61589136 285.24506007 438.55791594 284 442.5 C283.49999221 444.08333087 282.99999221 445.66666421 282.5 447.25 C277.5 463.08333333 272.5 478.91666667 267.5 494.75 C267.25258057 495.5335083 267.00516113 496.3170166 266.75024414 497.12426758 C266.24946149 498.71005215 265.74864761 500.29582687 265.24780273 501.8815918 C264.00952309 505.80234148 262.77175925 509.7232524 261.53515625 513.64453125 C258.57320969 523.03453204 255.59563918 532.41944062 252.60791016 541.80126953 C249.96990823 550.08776759 247.34934374 558.37970293 244.73388672 566.67333984 C243.49030751 570.61589136 242.24506007 574.55791594 241 578.5 C240.49999221 580.08333087 239.99999221 581.66666421 239.5 583.25 C234.5 599.08333333 229.5 614.91666667 224.5 630.75 C224.25258057 631.5335083 224.00516113 632.3170166 223.75024414 633.12426758 C223.24946149 634.71005215 222.74864761 636.29582687 222.24780273 637.8815918 C221.00952309 641.80234148 219.77175925 645.7232524 218.53515625 649.64453125 C215.57320969 659.03453204 212.59563918 668.41944062 209.60791016 677.80126953 C206.97876202 686.05995604 204.36691972 694.32403827 201.76025391 702.58984375 C200.38297595 706.95608909 199.00385134 711.32175134 197.625 715.6875 C197.11718006 717.29557057 196.60936683 718.90364325 196.1015625 720.51171875 C195.73804688 721.66285156 195.37453125 722.81398438 195 724 C190.79331257 723.48573503 187.05891533 722.82356613 183.125 721.25 C178.51477489 719.50237391 173.86313577 718.04062445 169.125 716.6875 C162.52223372 714.7933249 156.00631037 712.70214493 149.5 710.5 C143.19943138 708.36924361 136.89442963 706.3304665 130.5 704.5 C123.29108905 702.43638045 116.18700402 700.11056271 109.09570312 697.67382812 C103.80444871 695.87336125 98.47582242 694.24012799 93.109375 692.6796875 C83.27302803 689.81752703 73.51144076 686.73156861 63.75 683.625 C62.84991211 683.33931152 61.94982422 683.05362305 61.02246094 682.75927734 C50.1832418 679.31883603 39.36374516 675.83258049 28.59228516 672.18457031 C22.77839661 670.22633848 16.92095392 668.46611606 11.02539062 666.77148438 C5.22134753 665.09500672 -0.4893195 663.18151486 -6.2109375 661.2421875 C-10.16058688 659.94735399 -14.13087761 658.77256501 -18.125 657.625 C-25.45664809 655.51478395 -32.68785875 653.15359294 -39.90283203 650.67431641 C-45.15587325 648.88687429 -50.44652989 647.27271291 -55.77587891 645.72973633 C-63.88993993 643.36064466 -71.93966306 640.81715203 -79.98049545 638.21184349 C-83.9528965 636.92726817 -87.92994227 635.65718539 -91.90625 634.38476562 C-96.91202665 632.78252833 -101.91624869 631.17592159 -106.91503906 629.55200195 C-111.00865628 628.22256742 -115.10705188 626.90892632 -119.20901871 625.60549355 C-120.75361273 625.11161145 -122.29643362 624.61214364 -123.83727646 624.10667992 C-135.00332902 620.44806453 -144.3993601 619.0041464 -156.125 621 C-161.51729626 621.84328862 -166.55074094 622.18790548 -172 622 C-172 621.67 -172 621.34 -172 621 C-152.97062882 618.44495005 -133.93495445 615.94525308 -114.89111328 613.5 C-109.7183319 612.8353083 -104.54591291 612.16782434 -99.37353516 611.5 C-96.78861688 611.16633602 -94.20365581 610.83300334 -91.61865234 610.5 C-85.19681225 609.67252243 -78.7755794 608.8407972 -72.35546875 608 C-58.91281575 606.24422491 -45.46594386 604.56489127 -32 603 C-17.121978 601.269593 -2.26160459 599.4357822 12.58447266 597.44824219 C15.77671275 597.02930346 18.97113651 596.63982061 22.16796875 596.2578125 C23.96626193 596.02694418 25.76444845 595.79524271 27.5625 595.5625 C28.34737793 595.47669678 29.13225586 595.39089355 29.94091797 595.30249023 C35.52328946 594.54069149 38.19998365 592.97144566 42 589 C47.10473597 578.87640416 43.5484369 565.06141307 41.9375 554.375 C41.54167996 551.73810732 41.15686847 549.10029891 40.77734375 546.4609375 C40.60452881 545.31415527 40.43171387 544.16737305 40.25366211 542.98583984 C40.0239302 540.28168074 40.12790496 538.53749773 41 536 C41.78375 536.825 42.5675 537.65 43.375 538.5 C46.97570262 541.51056371 50.08605919 541.59510693 54.66015625 541.375 C57.61984543 540.90065916 59.61581528 539.78813854 62 538 C62.66 538 63.32 538 64 538 C65.11272779 535.29474436 66.14025943 532.58931232 67.0859375 529.8203125 C73.31600275 511.9607921 82.1544574 494.78978399 94 480 C94.4419873 479.44135254 94.88397461 478.88270508 95.33935547 478.30712891 C114.9606154 453.69871168 140.69566361 438.87207573 172 435 C174.74713406 434.89864545 177.46824248 434.8362587 180.21484375 434.83203125 C180.988246 434.82870285 181.76164825 434.82537445 182.55848694 434.82194519 C184.19141043 434.81690616 185.82434413 434.81453592 187.45727539 434.81469727 C189.8994349 434.81253372 192.34112467 434.79440954 194.78320312 434.77539062 C207.39828041 434.72967803 219.58034458 435.5683125 231.875 438.625 C241.32014104 441.12421382 241.32014104 441.12421382 250.32421875 438.5703125 C255.11036587 434.56610324 257.7628208 431.45085173 258.375 425.125 C258.25752208 419.87765308 255.62427194 416.62427194 252 413 C250.19447131 412.24303411 250.19447131 412.24303411 248.09765625 411.625 C224.04241624 403.86555843 203.08742831 391.6919306 185 374 C184.17757813 373.22785156 183.35515625 372.45570313 182.5078125 371.66015625 C177.19558605 366.57150836 172.94702065 361.19984451 169 355 C168.41347656 354.09636719 167.82695313 353.19273437 167.22265625 352.26171875 C157.30429764 336.22306007 151.54668976 316.84986301 151 298 C150.96890137 297.29520508 150.93780273 296.59041016 150.90576172 295.86425781 C150.14888051 277.50893767 152.59487695 259.43179493 157.37792969 241.70654297 C158.70327434 235.9401494 159.07352827 230.42742485 156.3125 225.0625 C153.39657537 221.20087009 151.56902036 219.43482555 146.73828125 218.6171875 C140.86402436 218.20338074 137.55472728 219.27520172 132.93823242 222.95092773 C129.20440905 226.89827369 127.52508139 231.81945655 125.5625 236.8125 C124.62177015 239.06702181 123.67643342 241.31962672 122.7265625 243.5703125 C122.26668945 244.66891602 121.80681641 245.76751953 121.33300781 246.89941406 C107.61292676 278.8124231 83.92268688 306.1632311 51.3125 319.3125 C39.07407008 324.06493912 26.21380905 327.50822342 13 327 C11.71952297 324.43904593 11.61430256 322.24347796 11.31640625 319.390625 C11.13174805 317.66779297 11.13174805 317.66779297 10.94335938 315.91015625 C10.81767578 314.70230469 10.69199219 313.49445313 10.5625 312.25 C9.69473225 303.9763625 8.71244832 295.74176 7.5065918 287.51025391 C6.64448543 281.53658384 5.8896677 275.54928857 5.125 269.5625 C4.9519281 268.21352817 4.77874841 266.86457016 4.60546875 265.515625 C4.24730887 262.72677798 3.88960193 259.93787344 3.53222656 257.14892578 C2.52798384 249.31560377 1.51470187 241.48344378 0.50268555 233.65112305 C-0.26010079 227.74484942 -1.02147088 221.83841086 -1.77563477 215.93103027 C-3.42395557 203.02125148 -5.09754201 190.11994463 -6.99414062 177.24389648 C-7.93247284 170.75916553 -8.66180287 164.26349159 -9.26611328 157.73925781 C-9.66903006 153.54625628 -10.24581187 149.42477114 -10.96484375 145.2734375 C-12.08021451 138.76908109 -12.81057453 132.24875094 -13.5 125.6875 C-14.71370195 114.48427245 -15.95383414 103.30559823 -17.7890625 92.18359375 C-17.92699219 91.32564209 -18.06492187 90.46769043 -18.20703125 89.58374023 C-18.47258178 87.94219746 -18.74754871 86.30212887 -19.03515625 84.66430664 C-21.18215115 71.33827452 -20.16193749 60.23962785 -15.87890625 47.48046875 C-15.45345747 46.16208245 -15.0299065 44.8430824 -14.60813904 43.52351379 C-13.50823417 40.10012434 -12.3823951 36.68584796 -11.25061035 33.27288818 C-10.0973793 29.77790458 -8.97125925 26.27420459 -7.84179688 22.77148438 C-1.34890334 2.69780667 -1.34890334 2.69780667 0 0 Z " fill="#4569A4" transform="translate(594,231)"/>
<path d="M0 0 C4.98851908 3.62560129 8.09533663 9.26911518 9.22077942 15.26766968 C9.44791036 16.97343739 9.64983396 18.68270819 9.829422 20.39413452 C9.94613251 21.31919296 10.06284302 22.2442514 10.18309021 23.19734192 C10.55234843 26.16435892 10.88838986 29.13407473 11.22395325 32.10507202 C11.47187726 34.1423837 11.72212742 36.17941363 11.97468567 38.21615601 C12.46410052 42.18836684 12.94159494 46.16166522 13.40657043 50.1368103 C14.16521024 56.61292372 14.99890522 63.07783377 15.84895325 69.54257202 C15.96069885 70.43089722 16.07244446 71.31922241 16.18757629 72.23446655 C16.63015532 75.71505212 17.13845933 79.08895724 18.03645325 82.48007202 C18.39827698 81.30819336 18.39827698 81.30819336 18.76741028 80.11264038 C19.88099802 76.54179922 21.0209249 72.97989533 22.16145325 69.41757202 C22.54043762 68.18845093 22.919422 66.95932983 23.30989075 65.69296265 C25.66933603 58.39834431 27.91368489 51.47326324 34.84614563 47.42268372 C42.23720147 44.2418996 50.60707303 47.1761534 57.80989075 49.57382202 C58.85284302 49.90763885 59.89579529 50.24145569 60.97035217 50.58538818 C64.45509398 51.7038378 67.93300182 52.84222454 71.41145325 53.98007202 C73.91795131 54.78783285 76.42483159 55.59426497 78.93244934 56.39852905 C82.96886543 57.69410576 87.00481269 58.99106465 91.03868103 60.29455566 C101.50911584 63.67725209 111.99492332 67.00926561 122.48957825 70.31600952 C123.66091309 70.68513238 123.66091309 70.68513238 124.85591125 71.06171227 C128.04131785 72.06539899 131.22680523 73.06882864 134.41241455 74.07187176 C143.32527022 76.87828187 152.23575523 79.69218538 161.14582825 82.50741577 C161.94424133 82.75965723 162.74265442 83.01189869 163.56526184 83.27178383 C179.36695195 88.26438295 195.1621399 93.27735484 210.95555496 98.29605865 C230.62168571 104.54524003 250.29138301 110.78282537 269.97395325 116.98007202 C271.60844421 117.49472519 271.60844421 117.49472519 273.2759552 118.01977539 C286.20975052 122.09062902 299.14941322 126.14233887 312.095047 130.17538452 C317.36730957 131.8182058 322.63945838 133.46139182 327.91145325 135.10507202 C328.56499786 135.30881817 329.21854248 135.51256432 329.89189148 135.72248459 C353.44950535 143.06800135 376.9693831 150.52914939 400.47395325 158.04257202 C401.26542503 158.29551277 402.05689682 158.54845352 402.8723526 158.80905914 C408.13456584 160.49086223 413.39623541 162.17435682 418.657547 163.85897827 C419.66780536 164.18224248 419.66780536 164.18224248 420.69847298 164.51203728 C423.76170271 165.49247919 426.82402524 166.47560354 429.88493347 167.46327209 C431.87111924 168.10409103 433.85874824 168.74047005 435.84837341 169.37052917 C443.04133237 171.68431339 443.04133237 171.68431339 445.53645325 175.04257202 C446.00051575 175.64198608 446.46457825 176.24140015 446.94270325 176.85897827 C450.16187556 181.63025152 449.48925592 186.91565758 449.03645325 192.48007202 C448.01571295 197.20450804 446.54772414 201.73714884 445.02082825 206.31991577 C444.602879 207.61633881 444.18650966 208.91327213 443.7716217 210.2106781 C442.68366122 213.59889747 441.57525665 216.98006058 440.46192932 220.36001587 C439.3431636 223.76786905 438.24308211 227.18173217 437.141922 230.5953064 C435.5168034 235.62935067 433.87987504 240.65932329 432.23469543 245.68685913 C430.09249701 252.26179234 428.05376124 258.86593525 426.03645325 265.48007202 C421.44811088 280.36449812 416.658436 295.18548136 411.89949036 310.01596069 C408.21952567 321.48651575 404.54153893 332.95466482 401.03645325 344.48007202 C397.72796572 355.17578998 394.347411 365.84925627 390.97053528 376.52352905 C390.27758958 378.71683079 389.58608105 380.9105867 388.89533997 383.10458374 C383.41053043 400.51732146 377.84689381 417.9050551 372.29707336 435.29714966 C362.54362848 465.74435672 362.54362848 465.74435672 353.0247345 496.26522827 C347.59049358 513.94262068 341.97388106 531.56440743 336.34114075 549.17929077 C326.0026698 581.51627331 315.74018392 613.87484569 305.64729309 646.28939819 C301.38530823 659.97597886 297.09584465 673.65264959 292.73106384 687.30682373 C291.82930592 690.12817986 290.93075501 692.95055275 290.032547 695.77304077 C289.63893982 697.00896973 289.63893982 697.00896973 289.23738098 698.26986694 C286.0671979 708.22649246 282.91298324 718.18806275 279.77033997 728.15341187 C278.52676076 732.09596338 277.28151332 736.03798797 276.03645325 739.98007202 C275.53644546 741.5634029 275.03644546 743.14673623 274.53645325 744.73007202 C273.53645325 747.89673869 272.53645325 751.06340535 271.53645325 754.23007202 C271.28887268 755.01414429 271.04129211 755.79821655 270.78620911 756.60604858 C270.28717876 758.18617594 269.78799306 759.76625424 269.28865051 761.34628296 C268.02252342 765.35327572 266.75927612 769.36113817 265.501297 773.37069702 C264.49960596 776.56320802 263.49005845 779.75305859 262.47395325 782.94100952 C261.53173917 785.89739513 260.6174198 788.86018137 259.72395325 791.83163452 C259.3077011 793.17290907 258.8910562 794.51406181 258.47395325 795.85507202 C258.12203918 797.0178064 257.77012512 798.18054077 257.407547 799.37850952 C254.89829335 805.05471293 250.63288384 808.24938266 245.1184845 810.74569702 C237.82331136 813.31885378 231.98311908 810.58496918 225.09674072 807.95509338 C221.16500219 806.49189248 217.18661946 805.2949422 213.15388489 804.14535522 C204.25877517 801.56768765 195.42473814 798.81535801 186.595047 796.02304077 C184.97292857 795.51117677 183.35078126 794.99940427 181.72860718 794.48771667 C178.35260306 793.42238324 174.97698359 792.35584211 171.60163879 791.28842163 C167.35247384 789.94478617 163.10229293 788.60439724 158.85183239 787.26486683 C126.97675594 777.21642251 126.97675594 777.21642251 111.3760376 771.92921448 C106.06636466 770.13230163 100.73845803 768.45868491 95.34895325 766.91757202 C88.10757734 764.84137117 80.9814586 762.48325095 73.84577942 760.07015991 C67.62576031 757.97855793 61.3741046 756.06542334 55.06770325 754.25350952 C49.33360368 752.59650737 43.69024892 750.71082949 38.03791809 748.7930603 C34.15463059 747.50006428 30.23467495 746.34692077 26.30207825 745.21444702 C16.5778885 742.38242215 6.93371486 739.3120873 -2.71354675 736.23007202 C-6.3537459 735.06987766 -9.99445278 733.91128556 -13.63542175 732.75350952 C-14.52829895 732.46952301 -15.42117615 732.1855365 -16.34111023 731.89294434 C-23.86848049 729.50247689 -31.41339973 727.17261291 -38.96354675 724.85507202 C-50.78003194 721.22182301 -62.50874183 717.34824643 -74.21354675 713.37216187 C-81.53984246 710.89239999 -88.89253112 708.57892271 -96.32092285 706.42390442 C-104.37118172 704.08489977 -112.37420659 701.59922179 -120.37150574 699.08578491 C-122.08385328 698.54882736 -123.7970997 698.01472939 -125.51115417 697.48324585 C-128.02715609 696.70303708 -130.54051267 695.91480758 -133.0533905 695.12460327 C-133.82094162 694.88812576 -134.58849274 694.65164825 -135.37930298 694.40800476 C-140.73518495 692.70843382 -140.73518495 692.70843382 -142.96354675 690.48007202 C-146.01596551 690.73652524 -148.94431343 691.12136917 -151.96354675 691.60507202 C-153.98128223 691.90528405 -155.99955072 692.20192751 -158.01823425 692.49569702 C-159.12908386 692.65747437 -160.23993347 692.81925171 -161.38444519 692.9859314 C-167.22595346 693.79242613 -173.08488755 694.4460173 -178.94380188 695.11105347 C-191.33131788 696.52044429 -203.68339897 698.09658488 -216.02604675 699.85507202 C-231.53215394 702.06381963 -247.06600102 703.98693695 -262.61595154 705.85974121 C-278.02698769 707.71854622 -293.41069479 709.71424793 -308.77604675 711.91952515 C-315.8279521 712.92927316 -322.86516733 713.86478269 -329.96354675 714.48007202 C-331.51622253 714.63282593 -331.51622253 714.63282593 -333.1002655 714.78866577 C-337.99354757 715.03595261 -341.15268609 714.92037116 -345.02604675 711.73007202 C-349.04113694 707.84260084 -350.20561687 704.04170432 -350.90952969 698.56381226 C-351.06997298 697.34335614 -351.23041628 696.12290003 -351.3957215 694.8654604 C-351.56684739 693.50654468 -351.73784271 692.14761252 -351.90872192 690.78866577 C-352.09596264 689.34278733 -352.2838479 687.89699224 -352.47232097 686.45127392 C-352.99118585 682.45675203 -353.50092334 678.46110921 -354.00929484 674.46524024 C-354.56296097 670.12641834 -355.12517183 665.78870301 -355.68638039 661.45085144 C-356.66937359 653.84388632 -357.64708576 646.23625707 -358.62138557 638.62817383 C-360.06746416 627.33670062 -361.5218049 616.04630307 -362.97836777 604.75617802 C-363.67152673 599.38331202 -364.36439944 594.01040912 -365.05720043 588.63749695 C-365.19698628 587.55341952 -365.33677212 586.46934209 -365.4807939 585.35241383 C-366.49632332 577.47534395 -367.51029598 569.59807451 -368.52360249 561.72071838 C-372.79206304 528.5402059 -377.08435791 495.36283416 -381.38981628 462.18710327 C-382.65737284 452.41929273 -383.92484755 442.65147156 -385.19221497 432.88363647 C-385.35006949 431.66705727 -385.50792402 430.45047806 -385.67056201 429.19703281 C-389.85276054 396.96330415 -394.02089358 364.72775666 -398.18750832 332.49201041 C-398.99469607 326.24713575 -399.80197182 320.00227245 -400.60929871 313.75741577 C-400.7695025 312.51817584 -400.9297063 311.27893592 -401.09476475 310.00214326 C-403.75193098 289.44961308 -406.41704865 268.8981205 -409.08466543 248.34694445 C-411.87424393 226.85487236 -414.65582869 205.36177688 -417.42981189 183.86768627 C-419.11823986 170.78689159 -420.81274724 157.70691594 -422.5154826 144.62797582 C-423.66531354 135.79132664 -424.80738096 126.9536963 -425.94321276 118.11523688 C-426.59607451 113.03679801 -427.25238021 107.95886702 -427.91797638 102.88208008 C-428.52625993 98.24187168 -429.12472787 93.60050646 -429.71540796 88.95802534 C-429.93033496 87.28257501 -430.14884904 85.60758005 -430.37134082 83.93311751 C-433.18616822 62.71139406 -433.18616822 62.71139406 -427.608078 54.98788452 C-422.52157384 50.32424888 -416.49966593 49.75248429 -409.96354675 48.93710327 C-386.09308397 45.91961579 -362.22598391 42.87764217 -338.36393738 39.79428101 C-335.6800337 39.44770077 -332.99612718 39.10114261 -330.31221771 38.7546072 C-323.2742289 37.84582237 -316.23629858 36.93658515 -309.19838333 36.02723074 C-305.03343463 35.48908912 -300.86847191 34.95105605 -296.70350647 34.41304398 C-260.57293675 29.74578525 -224.44289797 25.07441838 -188.31296539 20.40223026 C-185.01647992 19.97594436 -181.71999401 19.54966187 -178.42350769 19.12338257 C-177.60482682 19.01751614 -176.78614596 18.91164972 -175.94265658 18.80257522 C-162.51976115 17.06683909 -149.09675743 15.3319418 -135.67371529 13.59734065 C-121.76568524 11.80004959 -107.85776263 10.00192894 -93.94994211 8.20301718 C-85.42866269 7.10085468 -76.90730187 5.99932576 -68.38583297 4.89862924 C-62.5871832 4.1495686 -56.7886384 3.39969905 -50.9901765 2.64918555 C-47.6514346 2.21706537 -44.31263279 1.7854229 -40.97373581 1.35450172 C-37.35753644 0.88773462 -33.74151429 0.41961788 -30.12553406 -0.04884338 C-29.07249132 -0.18443867 -28.01944858 -0.32003396 -26.93449545 -0.45973819 C-5.65909715 -3.22220644 -5.65909715 -3.22220644 0 0 Z M-28.1002655 19.61679077 C-29.0803508 19.73638657 -30.0604361 19.85598236 -31.07022095 19.97920227 C-34.26442296 20.37066854 -37.45775054 20.76878926 -40.65104675 21.16757202 C-42.87288531 21.44218036 -45.09472779 21.71675691 -47.3165741 21.99130249 C-62.43358715 23.8690745 -77.52589299 25.89276639 -92.60850525 28.02719116 C-93.30961426 28.12636841 -94.01072327 28.22554565 -94.733078 28.32772827 C-95.42274658 28.42529419 -96.11241516 28.52286011 -96.82298279 28.62338257 C-107.9243243 30.18664676 -119.048105 31.58109771 -130.16911316 32.9961853 C-135.30573288 33.65123486 -140.44130369 34.3142994 -145.576828 34.97787476 C-148.16661044 35.31249677 -150.75645421 35.64664442 -153.34635925 35.98031616 C-159.76772046 36.80764033 -166.18845778 37.63933905 -172.608078 38.48007202 C-186.76709076 40.32941246 -200.93192605 42.08229234 -215.11546326 43.73007202 C-229.13574948 45.36082858 -243.1327392 47.14672842 -257.12809753 48.98007202 C-261.00871127 49.4859598 -264.89022972 49.98424108 -268.7721405 50.48007202 C-279.70647002 51.87805288 -290.63795446 53.28137432 -301.55241394 54.82772827 C-317.4570458 57.07753652 -333.39426688 59.03380084 -349.33854675 60.98007202 C-350.58539246 61.13233246 -351.83223816 61.2845929 -353.11686707 61.44146729 C-355.60522926 61.7453293 -358.09359188 62.04918778 -360.58195496 62.3530426 C-362.39506165 62.57447685 -362.39506165 62.57447685 -364.24479675 62.80038452 C-365.43871033 62.94619461 -366.6326239 63.0920047 -367.86271667 63.24223328 C-376.87303403 64.34386851 -385.88208741 65.4545622 -394.88621521 66.60580444 C-396.78201059 66.84785366 -398.67819354 67.08686127 -400.5743866 67.32577515 C-401.66960632 67.46692749 -402.76482605 67.60807983 -403.89323425 67.75350952 C-404.81346375 67.87129761 -405.73369324 67.98908569 -406.68180847 68.11044312 C-409.1183332 68.44252604 -409.1183332 68.44252604 -411.96354675 69.48007202 C-410.30866884 84.13445144 -408.39581286 98.75536709 -406.49577332 113.37948608 C-405.64731161 119.91244798 -404.80588887 126.44631885 -403.96354675 132.98007202 C-403.63024443 135.56340936 -403.29691105 138.14674268 -402.96354675 140.73007202 C-388.96354675 249.23007202 -374.96354675 357.73007202 -360.96354675 466.23007202 C-360.71604675 468.14783447 -360.71604675 468.14783447 -360.46354675 470.1043396 C-360.12996557 472.69008238 -359.79663261 475.27585719 -359.46354675 477.86166382 C-358.63602829 484.28341719 -357.80433347 490.70457269 -356.96354675 497.12460327 C-355.31407284 509.75552831 -353.72668757 522.38811893 -352.27067566 535.04251099 C-350.64886647 549.1309667 -348.80343521 563.17573927 -346.82145691 577.21786499 C-344.92017381 590.69378239 -343.16531693 604.18499291 -341.44743347 617.68563843 C-340.46409667 625.3965469 -339.46459726 633.10538012 -338.46769714 640.81454468 C-337.6940599 646.80195661 -336.92289092 652.78964456 -336.16246033 658.77874756 C-335.80777267 661.5707771 -335.45139277 664.36258958 -335.09489441 667.15438843 C-334.84765078 669.09607507 -334.60281823 671.03806825 -334.358078 672.98007202 C-333.39525344 680.51275834 -332.27351784 687.99981008 -330.96354675 695.48007202 C-320.22320709 694.79002661 -309.57867118 693.54974631 -298.90104675 692.23007202 C-298.00450378 692.12024994 -297.10796082 692.01042786 -296.18424988 691.89727783 C-283.20681584 690.30615123 -270.25407166 688.57854844 -257.31019592 686.73605347 C-243.71558919 684.80557099 -230.0955785 683.12326065 -216.46354675 681.48007202 C-202.2776377 679.77000358 -188.10882441 677.99989367 -173.96354675 675.98007202 C-158.75596245 673.80856229 -143.51886023 671.93334052 -128.26774597 670.09481812 C-115.14742388 668.51087986 -102.04644323 666.84819496 -88.96354675 664.98007202 C-73.75864447 662.80894526 -58.5242493 660.93385453 -43.27580261 659.0958252 C-29.27227836 657.40544286 -15.29385772 655.60377291 -1.3299408 653.61346436 C12.77746253 651.60624764 26.91245138 649.86271281 41.06184387 648.17904663 C50.40673002 647.06447942 59.72725727 645.86741798 69.03645325 644.48007202 C69.13332637 639.54748316 68.78815043 634.89199964 68.08332825 630.01132202 C67.98323959 629.30670334 67.88315094 628.60208466 67.7800293 627.87611389 C67.56487669 626.36403793 67.34762947 624.85225878 67.12846375 623.34075928 C66.54174866 619.29102737 65.97171098 615.23893844 65.3997345 611.18710327 C65.28340164 610.36575394 65.16706879 609.5444046 65.04721069 608.69816589 C63.96424054 601.02861847 62.95567439 593.35077954 61.97395325 585.66757202 C61.8131427 584.41009155 61.65233215 583.15261108 61.48664856 581.85702515 C61.16406503 579.32957994 60.84195921 576.80207371 60.52033997 574.27450562 C59.70003712 567.84204 58.86755995 561.41114899 58.03645325 554.98007202 C57.70306312 552.39674602 57.36972975 549.81341269 57.03645325 547.23007202 C56.87145325 545.95132202 56.70645325 544.67257202 56.53645325 543.35507202 C40.03645325 415.48007202 23.53645325 287.60507202 -0.96354675 97.73007202 C-1.12862732 96.45083862 -1.29370789 95.17160522 -1.46379089 93.85360718 C-1.79645508 91.27517532 -2.12897506 88.69672484 -2.46134949 86.11825562 C-3.21797806 80.24984294 -3.97570461 74.38158282 -4.739151 68.51405334 C-6.90767612 51.84675142 -9.00153067 35.17303146 -10.96354675 18.48007202 C-16.76649204 18.33624636 -22.34581178 18.8962851 -28.1002655 19.61679077 Z M44.03645325 66.48007202 C41.70250145 73.3757337 39.39307226 80.27912241 37.1149292 87.19342041 C35.93133786 90.78354657 34.73874553 94.37029691 33.53059387 97.95223999 C32.23958051 101.78299457 30.97265237 105.62108698 29.71922302 109.46429443 C29.22898969 110.95470736 28.73112213 112.44263457 28.22502136 113.92773438 C23.63763021 127.41975785 22.91448292 139.31456729 25.41145325 153.48007202 C25.67094108 155.04229467 25.92869949 156.60480538 26.18489075 158.16757202 C26.38936829 159.41026855 26.38936829 159.41026855 26.59797668 160.67807007 C28.55970095 173.21409982 29.90234551 185.83545179 31.28645325 198.44515991 C32.28457168 207.51302688 33.45776904 216.49118299 35.03645325 225.48007202 C36.44293378 234.8253538 37.45385089 244.21162949 38.47395325 253.60507202 C39.35225569 261.66702781 40.29115767 269.70686856 41.47395325 277.73007202 C44.68713005 299.52728323 47.28259492 321.40966919 49.92201233 343.28222656 C51.21055454 353.94581653 52.52307983 364.6002902 54.13630676 375.22079468 C54.84932816 379.93787182 55.36227259 384.64383025 55.76399231 389.39828491 C55.92832574 391.53661752 55.92832574 391.53661752 57.03645325 393.48007202 C84.23896936 395.14553219 112.32885158 379.82831292 132.03645325 362.48007202 C136.82642631 357.9923317 141.00891027 353.25287331 144.91145325 347.98007202 C145.42683655 347.28502563 145.94221985 346.58997925 146.47322083 345.87387085 C156.47791719 332.18119309 164.54806587 317.20340449 170.65364075 301.37069702 C175.14387812 289.86598072 175.14387812 289.86598072 180.82551575 286.33944702 C184.95381693 284.73480699 188.71380944 284.64016133 193.03645325 285.48007202 C196.76569755 287.24298751 198.52841266 288.76881519 200.91145325 292.10507202 C203.08181621 298.6161609 202.4245185 304.48540091 200.6497345 311.03866577 C196.14115342 328.54698894 194.01828367 346.42627841 195.03645325 364.48007202 C195.07512512 365.20952026 195.113797 365.93896851 195.15364075 366.69052124 C197.13458738 398.45121337 211.73873018 425.35009125 234.89241028 446.60653687 C248.88119589 458.83039713 267.02344522 470.2272481 284.8684845 475.67929077 C285.8718988 475.99011597 285.8718988 475.99011597 286.89558411 476.30722046 C288.80818935 476.88630646 290.73074764 477.43221584 292.65364075 477.97616577 C297.29836057 480.04108163 299.73946484 482.88609521 302.03645325 487.48007202 C302.546094 493.59576111 302.13646722 496.62479231 298.03645325 501.48007202 C294.88523362 504.9314078 292.50965448 506.80751057 287.84895325 507.04257202 C281.8552337 506.75152646 275.99499936 505.34535344 270.16462708 503.99203491 C236.40477814 496.23425833 198.03372101 499.87819556 168.29475403 517.92538452 C163.24422662 521.14640496 158.91057934 524.85651748 154.59895325 529.02304077 C152.64872628 530.89299925 150.70232014 532.58584147 148.6184845 534.29257202 C144.77026802 537.56912184 141.75311249 541.26272507 138.72395325 545.29257202 C138.16417786 546.03394409 137.60440247 546.77531616 137.02766418 547.53915405 C125.02503223 563.73073875 115.2388086 582.28230546 109.03645325 601.48007202 C108.03645325 604.48007202 108.03645325 604.48007202 106.16145325 605.60507202 C102.78058331 606.99719494 99.92603616 607.70813234 96.28645325 607.85507202 C95.4666095 607.9040564 94.64676575 607.95304077 93.80207825 608.00350952 C89.80059989 607.24616757 87.16756627 604.99245531 84.03645325 602.48007202 C84.32528113 605.33455181 84.61692423 608.18867807 84.91145325 611.04257202 C85.00023743 611.9064856 85.08902161 612.77039917 85.18049622 613.66049194 C85.72958728 618.89326222 86.39282368 624.08785183 87.16145325 629.29257202 C89.81310983 648.89361745 89.81310983 648.89361745 85.03645325 656.48007202 C80.35204277 661.73853093 74.07839347 661.71326774 67.47395325 662.51522827 C66.23250549 662.67878311 64.99105774 662.84233795 63.71199036 663.010849 C59.82215734 663.51819252 55.929914 664.00144139 52.03645325 664.48007202 C49.68485044 664.77646462 47.33328655 665.07316626 44.98176575 665.37020874 C39.19678443 666.0936451 33.40928129 666.79441748 27.62062073 667.48773193 C10.19843527 669.57713031 -7.21451557 671.70703065 -24.58854675 674.16757202 C-25.30614166 674.26900513 -26.02373657 674.37043823 -26.76307678 674.47494507 C-29.54832985 674.86881045 -32.33352733 675.26306534 -35.11862183 675.65805054 C-58.68448638 678.9924003 -82.3239023 681.73221604 -105.96574402 684.46224976 C-107.05112961 684.58831604 -108.1365152 684.71438232 -109.25479126 684.8442688 C-111.30729407 685.08261948 -113.35998942 685.31931977 -115.41290283 685.55410767 C-116.33469833 685.66140198 -117.25649384 685.76869629 -118.20622253 685.87924194 C-119.00762665 685.97154587 -119.80903076 686.06384979 -120.63471985 686.15895081 C-123.10320939 686.49933006 -125.52535196 686.96817509 -127.96354675 687.48007202 C-127.96354675 687.81007202 -127.96354675 688.14007202 -127.96354675 688.48007202 C-121.37922693 688.70711753 -115.27775449 688.02291589 -108.78385925 686.91757202 C-98.00471851 685.683151 -89.31742721 687.47577924 -79.11979675 690.86288452 C-77.70175504 691.32075065 -76.28324621 691.77717226 -74.86430359 692.23223877 C-71.14506818 693.42915921 -67.43227954 694.64494351 -63.72062683 695.86514282 C-60.0031131 697.08383993 -56.28005595 698.28532659 -52.55729675 699.48788452 C-46.87487842 701.32528103 -41.19530661 703.17118123 -35.51774597 705.02352905 C-24.65558208 708.56540647 -13.76702229 712.02310211 -2.83854675 715.35507202 C3.55776002 717.3099535 9.91990356 719.36815026 16.28645325 721.41757202 C24.22832408 723.97274692 32.18259579 726.44356303 40.19856262 728.75497437 C46.01946317 730.44486708 51.75242598 732.35456069 57.4934845 734.29647827 C61.81653494 735.74067263 66.16594438 737.0823235 70.52644348 738.40829468 C86.59320926 743.31426267 102.57702981 748.48430661 118.57234192 753.61703491 C130.04289698 757.2969996 141.51104605 760.97498633 153.03645325 764.48007202 C163.910201 767.84362919 174.76068822 771.2824049 185.6131134 774.71395874 C188.79867297 775.72103973 191.98455708 776.72709131 195.17048645 777.73300171 C196.74327967 778.229622 198.31603382 778.72636608 199.88874817 779.22323608 C203.97113844 780.51290124 208.05411263 781.80067365 212.13801575 783.08554077 C213.39968567 783.48289429 213.39968567 783.48289429 214.68684387 783.88827515 C216.27649606 784.38888385 217.86632502 784.88893175 219.45637512 785.38827515 C220.18662903 785.6183728 220.91688293 785.84847046 221.66926575 786.08554077 C222.38372864 786.31032104 223.09819153 786.53510132 223.83430481 786.76669312 C225.37874405 787.26700924 226.91677288 787.78734668 228.44953918 788.32235718 C229.2387677 788.59741089 230.02799622 788.8724646 230.84114075 789.15585327 C231.54996399 789.40891235 232.25878723 789.66197144 232.98908997 789.92269897 C235.32606259 790.65519153 235.32606259 790.65519153 239.03645325 790.48007202 C244.55409225 774.3148222 244.55409225 774.3148222 249.53645325 757.98007202 C251.80456823 750.01766576 254.44578703 742.19325241 257.09284973 734.34994507 C259.27127098 727.86408564 261.29549272 721.3591174 263.173172 714.78085327 C265.06801749 708.21205555 267.26112928 701.75155746 269.45075989 695.2762146 C271.26707914 689.87465196 272.96819375 684.45852519 274.53645325 678.98007202 C276.62886126 671.67059335 279.01527573 664.478597 281.45051575 657.27694702 C283.26691335 651.87513851 284.96812271 646.45877337 286.53645325 640.98007202 C288.36692238 634.58563318 290.40589811 628.28071238 292.53645325 621.98007202 C294.64595168 615.74151004 296.66635333 609.50032003 298.47395325 603.16757202 C300.76640633 595.14398625 303.42458545 587.25605941 306.09260559 579.35067749 C308.27110549 572.8645722 310.29542186 566.35936567 312.173172 559.78085327 C314.06801749 553.21205555 316.26112928 546.75155746 318.45075989 540.2762146 C320.26707914 534.87465196 321.96819375 529.45852519 323.53645325 523.98007202 C325.36692238 517.58563318 327.40589811 511.28071238 329.53645325 504.98007202 C331.64595168 498.74151004 333.66635333 492.50032003 335.47395325 486.16757202 C337.76640633 478.14398625 340.42458545 470.25605941 343.09260559 462.35067749 C345.27110549 455.8645722 347.29542186 449.35936567 349.173172 442.78085327 C351.06801749 436.21205555 353.26112928 429.75155746 355.45075989 423.2762146 C357.26707914 417.87465196 358.96819375 412.45852519 360.53645325 406.98007202 C362.62886126 399.67059335 365.01527573 392.478597 367.45051575 385.27694702 C369.26691335 379.87513851 370.96812271 374.45877337 372.53645325 368.98007202 C374.36692238 362.58563318 376.40589811 356.28071238 378.53645325 349.98007202 C380.64595168 343.74151004 382.66635333 337.50032003 384.47395325 331.16757202 C386.76640633 323.14398625 389.42458545 315.25605941 392.09260559 307.35067749 C394.27110549 300.8645722 396.29542186 294.35936567 398.173172 287.78085327 C400.06865962 281.20982951 402.26265303 274.74718179 404.45295715 268.2696228 C406.24764124 262.93231217 407.9284854 257.58196617 409.47395325 252.16757202 C411.4639597 245.20254943 413.72054455 238.34315467 416.03645325 231.48007202 C419.27434909 221.87333523 422.27211907 212.23236877 425.03645325 202.48007202 C425.43311724 201.09582226 425.8302539 199.71170786 426.2278595 198.32772827 C427.16942285 195.04669276 428.1048899 191.76396293 429.03645325 188.48007202 C421.49152648 185.39649326 413.94636992 182.7933863 406.11091614 180.56723022 C399.68916807 178.72103948 393.36593105 176.61918731 387.03645325 174.48007202 C380.2553324 172.19277663 373.47881919 169.95230026 366.59895325 167.98007202 C350.83641981 163.45714576 335.24033154 158.31203903 319.72688293 153.00204468 C313.78100686 150.98957502 307.7734193 149.21301834 301.74806213 147.45701599 C293.89169977 145.16035204 286.08941565 142.7009317 278.28645325 140.23007202 C275.17086253 139.24606403 272.05487983 138.26330162 268.938797 137.28085327 C268.16900009 137.03803116 267.39920319 136.79520905 266.6060791 136.54502869 C261.1079161 134.81254333 255.60147816 133.10827237 250.09114075 131.41488647 C234.94678925 126.75640185 219.86718875 121.90239077 204.78645325 117.04257202 C183.21120323 110.09004073 161.61271225 103.21568661 139.99201965 96.40585327 C127.66357467 92.52220127 115.33894741 88.62723729 103.02251625 84.70567322 C100.84067982 84.01100014 98.65875563 83.3166034 96.47680664 82.62228394 C90.15116952 80.60923482 83.82578948 78.59540611 77.50196934 76.57665539 C75.53723226 75.94984086 73.57216925 75.32406059 71.60696411 74.69871521 C69.21502324 73.93752401 66.82361067 73.1746696 64.43286133 72.40974426 C57.67554144 70.26242202 50.89337931 68.28474884 44.03645325 66.48007202 Z " fill="#FCFDFD" transform="translate(549.9635467529297,164.51992797851563)"/>
<path d="M0 0 C4.74632559 2.09578013 7.68925286 4.51720609 9.91796875 9.3046875 C11.07115572 13.23612636 11.85830831 17.22798864 12.66796875 21.2421875 C16.72583857 39.92940029 22.65064657 57.54998811 31.91796875 74.3046875 C32.44261719 75.25601563 32.96726562 76.20734375 33.5078125 77.1875 C48.38554782 102.99662174 72.48732405 120.8582917 101.03125 128.77734375 C119.80610651 133.65638165 140.63014816 136.81899379 159.91796875 133.3046875 C165.92513215 132.82850991 170.78688075 132.7617934 175.91796875 136.3046875 C180.02185073 140.8522324 181.33963861 143.7561067 181.26171875 149.78515625 C180.66210904 154.18002285 178.80894744 157.95653079 175.91796875 161.3046875 C171.55208677 163.98360784 167.19859529 165.00363872 162.23046875 165.9296875 C134.75244319 171.60114266 109.50411486 182.2867914 87.91796875 200.3046875 C86.94085938 201.078125 85.96375 201.8515625 84.95703125 202.6484375 C81.73722368 205.34106997 79.16700609 208.36674708 76.60546875 211.6796875 C76.13471924 212.2876416 75.66396973 212.8955957 75.17895508 213.52197266 C53.94097768 241.49324442 49.60402667 272.64259013 49.53710938 306.93212891 C49.5275968 309.84059825 49.49390172 312.74801684 49.45703125 315.65625 C49.46207672 316.53753571 49.46712219 317.41882141 49.47232056 318.32681274 C49.38460982 323.80783493 48.55493522 326.94727789 44.91796875 331.3046875 C41.05472734 334.69965722 37.36535109 335.81587933 32.17578125 335.69140625 C27.51597459 334.89327328 24.16309232 332.68502456 20.91796875 329.3046875 C18.06618453 324.11409244 17.13319211 318.24745762 15.8203125 312.5234375 C7.92090701 278.08539792 -7.16540625 244.49245903 -37.59765625 224.3984375 C-43.84814247 220.55198444 -50.40801974 217.34146626 -57.08203125 214.3046875 C-58.1390625 213.82 -59.19609375 213.3353125 -60.28515625 212.8359375 C-76.40545593 206.05714481 -94.04004066 204.39395742 -111.35546875 204.09375 C-112.17468307 204.07932861 -112.9938974 204.06490723 -113.8379364 204.05004883 C-117.24298496 203.99283397 -120.64785951 203.93790553 -124.05322266 203.90332031 C-126.57103047 203.87567828 -129.08799037 203.82988128 -131.60546875 203.78125 C-132.36806 203.77799713 -133.13065125 203.77474426 -133.91635132 203.77139282 C-138.67425968 203.6621614 -141.93367704 202.86889583 -146.08203125 200.3046875 C-149.98752418 195.78158174 -151.9623218 190.47990298 -151.5546875 184.51171875 C-150.68824376 180.46592774 -149.21709216 177.0486418 -146.08203125 174.3046875 C-140.803767 171.96681017 -135.16701214 170.81845235 -129.53564453 169.6706543 C-95.70984783 162.74604881 -61.35201561 146.14512413 -41.58203125 116.8046875 C-35.06278772 106.62776083 -30.40733632 96.02243447 -26.83203125 84.4921875 C-26.48060059 83.37517456 -26.48060059 83.37517456 -26.12207031 82.2355957 C-21.07612991 64.99650592 -20.63563144 47.96896745 -20.72167969 30.14550781 C-20.7302637 27.19546927 -20.70859119 24.24679293 -20.68359375 21.296875 C-20.69693756 20.41031219 -20.71028137 19.52374939 -20.72402954 18.61032104 C-20.64982158 12.33520885 -19.08770548 8.16719141 -15.08203125 3.3046875 C-10.26553477 -0.88357031 -6.17871019 -2.06343417 0 0 Z " fill="#FDFDFE" transform="translate(366.08203125,394.6953125)"/>
<path d="M0 0 C0.67884208 4.79689206 1.35408589 9.59427389 2.02636719 14.39208984 C2.25428233 16.01526701 2.48308619 17.6383197 2.71289062 19.26123047 C4.0579873 28.76540037 5.3070623 38.26894853 6.32357788 47.81442261 C7.07777591 54.89544054 8.02209882 61.94662766 9 69 C6.48764521 66.73727021 4.64794676 64.14739975 2.74121094 61.3684082 C-14.62157366 36.10630795 -39.55914695 18.62236929 -69 10 C-69 9.34 -69 8.68 -69 8 C-67.22677368 7.79636841 -67.22677368 7.79636841 -65.41772461 7.58862305 C-59.92406612 6.9570784 -54.43071823 6.32286193 -48.9375 5.6875 C-47.46446411 5.51717758 -47.46446411 5.51717758 -45.96166992 5.34341431 C-33.71552346 3.92508597 -21.47642493 2.48261986 -9.26147461 0.81323242 C-6.14882183 0.39028897 -3.1456571 0 0 0 Z " fill="#4D629D" transform="translate(372,574)"/>
<path d="M0 0 C7.61715718 2.27069436 15.21686714 4.59592205 22.8125 6.9375 C23.89853516 7.27201172 24.98457031 7.60652344 26.10351562 7.95117188 C28.29886995 8.62736706 30.49410099 9.30396263 32.68920898 9.98095703 C34.91712778 10.66669798 37.14582284 11.34992145 39.37524414 12.03076172 C45.88389454 14.02103775 52.36291032 16.07610563 58.8125 18.25 C59.61236328 18.518125 60.41222656 18.78625 61.23632812 19.0625 C63.15803207 19.70690372 65.07909136 20.35322941 67 21 C65.74623391 26.16893567 64.35714458 31.23928029 62.75 36.3125 C62.53601563 36.99199707 62.32203125 37.67149414 62.1015625 38.37158203 C60.91733353 42.1275956 59.71876409 45.87891333 58.515625 49.62890625 C58.00995188 51.210789 57.50474704 52.79282151 57 54.375 C56.74855225 55.16116699 56.49710449 55.94733398 56.23803711 56.75732422 C54.20331233 63.19001843 52.39150213 69.67361275 50.73632812 76.21435547 C49.72117673 80.06361856 48.6955267 83.02482211 46 86 C45.86464844 85.08863281 45.72929688 84.17726563 45.58984375 83.23828125 C41.80254986 60.44648268 33.57302213 39.09790474 19 21 C18.57428711 20.46890625 18.14857422 19.9378125 17.70996094 19.390625 C12.66887588 13.14211588 7.6290529 7.24476427 1.36328125 2.171875 C0.91339844 1.78515625 0.46351563 1.3984375 0 1 C0 0.67 0 0.34 0 0 Z " fill="#4B629D" transform="translate(612,597)"/>
<path d="M0 0 C7.40587228 0.51472349 13.76525612 2.36068529 20.75 4.8125 C22.8941793 5.54660171 25.03870733 6.27968566 27.18359375 7.01171875 C28.1979248 7.36024902 29.21225586 7.7087793 30.25732422 8.06787109 C34.37411708 9.46700899 38.52523622 10.73672207 42.6875 11.9921875 C47.2400218 13.37727078 51.77571306 14.81434489 56.3125 16.25 C57.16884033 16.52086426 58.02518066 16.79172852 58.9074707 17.07080078 C60.93844015 17.71346805 62.96923868 18.3566754 65 19 C65 19.33 65 19.66 65 20 C64.18547363 20.17015625 63.37094727 20.3403125 62.53173828 20.515625 C46.68798431 23.87703084 31.34123391 27.17196533 17 35 C15.85144531 35.62648438 14.70289063 36.25296875 13.51953125 36.8984375 C1.93573024 43.67987417 -8.89112623 52.12733868 -18 62 C-19 60 -19 60 -18.43359375 58.13671875 C-17.94052734 56.92435547 -17.94052734 56.92435547 -17.4375 55.6875 C-15.32540409 50.13778591 -13.66297962 44.52476008 -12.0625 38.8125 C-8.39110948 25.75506951 -4.35533078 12.84700923 0 0 Z " fill="#496AA4" transform="translate(699,625)"/>
<path d="M0 0 C-2.93748595 3.09683071 -6.03774926 5.57284389 -9.5 8.0625 C-32.09669942 24.73271095 -48.21984036 47.27777502 -57 74 C-57.33 74 -57.66 74 -58 74 C-58.13575439 72.90872803 -58.27150879 71.81745605 -58.41137695 70.69311523 C-59.04424185 65.60780501 -59.67827569 60.52264084 -60.3125 55.4375 C-60.42604828 54.52650543 -60.53959656 53.61551086 -60.65658569 52.6769104 C-62.12315155 40.91668307 -63.60195198 29.1588216 -65.18676758 17.41381836 C-65.60820619 14.25287416 -66 11.19304742 -66 8 C-51.75266035 5.91804411 -37.49843022 3.88987768 -23.22195435 2.01745605 C-21.87496821 1.84037683 -20.52818213 1.66176863 -19.18161011 1.48156738 C-17.2818358 1.22792122 -15.38116278 0.98103469 -13.48046875 0.734375 C-12.39660889 0.59225586 -11.31274902 0.45013672 -10.19604492 0.30371094 C-6.77958229 -0.02094566 -3.42980467 -0.05086403 0 0 Z " fill="#4968A3" transform="translate(459,563)"/>
<path d="M0 0 C0.33 0 0.66 0 1 0 C1.13575439 1.17280518 1.27150879 2.34561035 1.41137695 3.55395508 C1.92746477 8.00331201 2.44875562 12.45204783 2.97143555 16.90063477 C3.19480876 18.80770159 3.41686402 20.71492336 3.63745117 22.62231445 C4.88218038 33.37688822 6.21242077 44.0890874 8.06990051 54.75776672 C8.8270039 59.24371171 9.12774818 63.44939262 9 68 C7.92854736 68.13575439 6.85709473 68.27150879 5.75317383 68.41137695 C0.77268759 69.04303432 -4.20745342 69.6773865 -9.1875 70.3125 C-10.52430817 70.48282242 -10.52430817 70.48282242 -11.88812256 70.65658569 C-22.96345705 72.06966635 -34.03358822 73.49793425 -45.07104492 75.18676758 C-48.74675741 75.7382256 -52.28034189 76.13967096 -56 76 C-53.5925178 74.06806984 -51.18223763 72.14181057 -48.74609375 70.24609375 C-24.84757692 51.52356703 -9.25371116 29.0631632 0 0 Z " fill="#4D639D" transform="translate(360,485)"/>
<path d="M0 0 C1.73821819 3.47643639 -0.45019997 7.17947614 -1.60546875 10.70703125 C-2.02618401 12.02159554 -2.02618401 12.02159554 -2.45539856 13.36271667 C-3.35916657 16.18159464 -4.27306695 18.99706571 -5.1875 21.8125 C-5.7851999 23.66839621 -6.38221308 25.52451373 -6.97851562 27.38085938 C-7.85018026 30.09390083 -8.7223216 32.80677611 -9.59719849 35.51878357 C-12.53709741 44.63694157 -15.4245101 53.7711612 -18 63 C-23.36050335 62.40516608 -28.05291945 61.10937142 -33.125 59.3125 C-39.92552654 56.96981992 -46.76010717 54.87217728 -53.6875 52.9375 C-62.22330328 50.54967079 -70.62638783 47.90696828 -79 45 C-76.72903232 42.72903232 -75.62066542 42.48203878 -72.5546875 41.73828125 C-71.65016846 41.51011719 -70.74564941 41.28195312 -69.8137207 41.046875 C-68.84394287 40.80453125 -67.87416504 40.5621875 -66.875 40.3125 C-57.06463468 37.74765691 -48.08526841 34.47620648 -39 30 C-38.00871094 29.51789062 -37.01742187 29.03578125 -35.99609375 28.5390625 C-22.27867168 21.4754682 -10.70213746 10.98377265 0 0 Z " fill="#4C639E" transform="translate(704,534)"/>
<path d="M0 0 C0.33 0 0.66 0 1 0 C1.13535156 1.07894531 1.27070312 2.15789063 1.41015625 3.26953125 C4.98587386 29.09157017 16.25495837 52.76481989 34.046875 71.83203125 C36.36948576 74.4101292 38.20681129 77.0373404 40 80 C25.90423535 76.71632755 12.23132504 72.12907388 -1.46655273 67.49902344 C-7.27650747 65.54234076 -13.11760364 63.72661114 -19 62 C-17.80092961 56.2123083 -16.34263531 50.61362488 -14.5 45 C-12.40406735 38.5070392 -10.38244282 31.9946897 -8.41796875 25.4609375 C-8.08135727 24.34250458 -8.08135727 24.34250458 -7.73794556 23.20147705 C-6.82528746 20.16694696 -5.91345641 17.13218917 -5.00732422 14.09570312 C-4.36563909 11.94579976 -3.72020876 9.79705056 -3.07421875 7.6484375 C-2.69869873 6.39208496 -2.32317871 5.13573242 -1.9362793 3.84130859 C-1 1 -1 1 0 0 Z " fill="#4A6BA4" transform="translate(725,542)"/>
<path d="M0 0 C2.58503704 2.40376919 4.49226539 5.04074731 6.5 7.9375 C22.52326605 30.16426905 44.34361252 45.70914872 70 55 C66.97913466 57.01391023 65.79429681 57.34883443 62.32006836 57.76196289 C61.37155502 57.87870865 60.42304169 57.99545441 59.44578552 58.11573792 C58.42082474 58.23352097 57.39586395 58.35130402 56.33984375 58.47265625 C55.28019913 58.60063095 54.2205545 58.72860565 53.12879944 58.86045837 C49.73255108 59.26867083 46.33508678 59.66559801 42.9375 60.0625 C40.67504455 60.33326958 38.41267355 60.60474587 36.15039062 60.87695312 C26.7740181 61.99872454 17.39998001 63.09357882 8 64 C3.11728351 29.10813692 3.11728351 29.10813692 1.1875 14.5625 C1.0639917 13.64847412 0.9404834 12.73444824 0.81323242 11.79272461 C0.29440978 7.83437051 -0.15617904 4.0031155 0 0 Z " fill="#4A69A3" transform="translate(382,486)"/>
<path d="M0 0 C7.84523609 7.07814634 11.99504843 18.17564985 15.3125 28 C15.54243652 28.67369629 15.77237305 29.34739258 16.00927734 30.04150391 C20.02648286 42.59931779 21.57427645 54.99663792 21.5 68.125 C21.50084595 69.20621124 21.50084595 69.20621124 21.50170898 70.30926514 C21.47657988 85.56640279 19.22352866 100.09289459 16 115 C15.34 114.67 14.68 114.34 14 114 C13.48594271 111.03131915 13.09811057 108.12830288 12.78125 105.13671875 C12.67784302 104.23435989 12.57443604 103.33200104 12.46789551 102.40229797 C12.13653426 99.49827435 11.81768551 96.59304879 11.5 93.6875 C11.18023961 90.82150844 10.8577771 87.95585617 10.53210449 85.0905304 C10.33003131 83.30661661 10.13159575 81.52228518 9.93762207 79.73747253 C9.31123084 74.1316961 8.44453902 68.59687592 7.49404907 63.03749084 C6.69467256 58.1227992 6.10948539 53.18657125 5.52734375 48.2421875 C5.39936905 47.17308136 5.27139435 46.10397522 5.13954163 45.00247192 C4.87191762 42.76238257 4.60560945 40.52213564 4.34057617 38.28173828 C3.93765066 34.87627338 3.53070355 31.47130773 3.12304688 28.06640625 C2.8617452 25.87502789 2.60066979 23.68362253 2.33984375 21.4921875 C2.22003647 20.48775604 2.10022919 19.48332458 1.97679138 18.44845581 C1.25101504 12.30488566 0.59264581 6.15784759 0 0 Z " fill="#50669F" transform="translate(617,635)"/>
</svg>
